<?xml version="1.0" encoding="UTF-8" standalone="no"?>
<!-- Generator: Adobe Illustrator 21.1.0, SVG Export Plug-In . SVG Version: 6.00 Build 0)  -->

<svg
   xmlns:dc="http://purl.org/dc/elements/1.1/"
   xmlns:cc="http://creativecommons.org/ns#"
   xmlns:rdf="http://www.w3.org/1999/02/22-rdf-syntax-ns#"
   xmlns:svg="http://www.w3.org/2000/svg"
   xmlns="http://www.w3.org/2000/svg"
   xmlns:sodipodi="http://sodipodi.sourceforge.net/DTD/sodipodi-0.dtd"
   xmlns:inkscape="http://www.inkscape.org/namespaces/inkscape"
   version="1.1"
   id="Layer_1"
   x="0px"
   y="0px"
   viewBox="0 0 33.5 33.5"
   style="enable-background:new 0 0 33.5 33.5;"
   xml:space="preserve"
   sodipodi:docname="tooltip_icon-7ed3b0faebc3304527285b776a233c4f.svg"
   inkscape:version="0.92.3 (2405546, 2018-03-11)"><metadata
   id="metadata15"><rdf:RDF><cc:Work
       rdf:about=""><dc:format>image/svg+xml</dc:format><dc:type
         rdf:resource="http://purl.org/dc/dcmitype/StillImage" /></cc:Work></rdf:RDF></metadata><defs
   id="defs13" /><sodipodi:namedview
   pagecolor="#ffffff"
   bordercolor="#666666"
   borderopacity="1"
   objecttolerance="10"
   gridtolerance="10"
   guidetolerance="10"
   inkscape:pageopacity="0"
   inkscape:pageshadow="2"
   inkscape:window-width="1366"
   inkscape:window-height="741"
   id="namedview11"
   showgrid="false"
   inkscape:zoom="7.0447761"
   inkscape:cx="14.26589"
   inkscape:cy="16.75"
   inkscape:window-x="-9"
   inkscape:window-y="-9"
   inkscape:window-maximized="1"
   inkscape:current-layer="Layer_1" />
<style
   type="text/css"
   id="style2">
	.st0{fill:#999999;}
</style>
<g
   id="g6"
   style="fill:#280b0b">
	<path
   class="st0"
   d="M15.1,19.9c-0.1-0.6-0.1-1.2,0.1-1.7c0.1-0.5,0.3-1,0.6-1.5c0.3-0.4,0.5-0.8,0.9-1.2s0.6-0.7,0.9-1.1   c0.3-0.4,0.5-0.7,0.7-1.1c0.2-0.4,0.3-0.7,0.3-1.1c0-0.6-0.2-1.1-0.6-1.5c-0.4-0.4-0.9-0.6-1.6-0.6c-0.5,0-1,0.1-1.5,0.4   c-0.4,0.2-0.9,0.6-1.2,1L12,9.9c0.6-0.7,1.2-1.2,2-1.6c0.8-0.4,1.6-0.6,2.6-0.6c0.7,0,1.4,0.1,2,0.3c0.6,0.2,1.1,0.5,1.6,0.8   c0.4,0.4,0.8,0.8,1,1.4c0.2,0.5,0.4,1.2,0.4,1.9c0,0.6-0.1,1.1-0.3,1.5c-0.2,0.4-0.5,0.9-0.8,1.3s-0.6,0.8-1,1.2   c-0.3,0.4-0.7,0.8-0.9,1.2c-0.3,0.4-0.5,0.8-0.7,1.3c-0.2,0.5-0.2,1-0.1,1.5H15.1z M14.5,23.8c0-0.6,0.2-1.1,0.6-1.5   c0.4-0.4,0.8-0.6,1.4-0.6c0.6,0,1,0.2,1.4,0.6c0.4,0.4,0.6,0.9,0.6,1.5c0,0.6-0.2,1.1-0.6,1.5c-0.4,0.4-0.8,0.6-1.4,0.6   c-0.6,0-1-0.2-1.4-0.6C14.7,24.9,14.5,24.4,14.5,23.8z"
   id="path4"
   style="fill:#280b0b" />
</g>
<path
   class="st0"
   d="M16.7,33.5C7.5,33.5,0,26,0,16.7S7.5,0,16.7,0s16.7,7.5,16.7,16.7S26,33.5,16.7,33.5z M16.7,2  C8.6,2,2,8.6,2,16.7s6.6,14.7,14.7,14.7c8.1,0,14.7-6.6,14.7-14.7S24.9,2,16.7,2z"
   id="path8"
   style="fill:#280b0b" />
</svg>